<mxfile host="app.diagrams.net" modified="2021-10-13T04:54:59.212Z" agent="5.0 (Windows NT 10.0; Win64; x64) AppleWebKit/537.36 (KHTML, like Gecko) Chrome/94.0.4606.81 Safari/537.36" etag="KXPcym9HSx14oskPkj8u" version="15.5.1" type="github">
  <diagram id="L7QY4okVQJp5hipJDfsT" name="Page-1">
    <mxGraphModel dx="2378" dy="1081" grid="1" gridSize="10" guides="1" tooltips="1" connect="1" arrows="1" fold="1" page="0" pageScale="1" pageWidth="850" pageHeight="1100" math="0" shadow="0">
      <root>
        <mxCell id="0" />
        <mxCell id="1" parent="0" />
        <mxCell id="FSJdYfOo43uuLk9ThQoz-45" value="DynamoDB Operation" style="verticalLabelPosition=middle;verticalAlign=middle;html=1;shape=process;whiteSpace=wrap;size=0.14;arcSize=6;labelPosition=center;align=center;fillColor=#e1d5e7;strokeColor=#9673a6;" parent="1" vertex="1">
          <mxGeometry x="-300" y="10" width="100" height="60" as="geometry" />
        </mxCell>
        <mxCell id="FSJdYfOo43uuLk9ThQoz-199" style="edgeStyle=orthogonalEdgeStyle;rounded=0;sketch=0;orthogonalLoop=1;jettySize=auto;html=1;exitX=1;exitY=0.5;exitDx=0;exitDy=0;exitPerimeter=0;" parent="1" source="FSJdYfOo43uuLk9ThQoz-47" target="FSJdYfOo43uuLk9ThQoz-112" edge="1">
          <mxGeometry relative="1" as="geometry" />
        </mxCell>
        <mxCell id="FSJdYfOo43uuLk9ThQoz-47" value="Fulfillment Message" style="strokeWidth=2;html=1;shape=mxgraph.flowchart.document2;whiteSpace=wrap;size=0.25;verticalAlign=middle;" parent="1" vertex="1">
          <mxGeometry x="-480" y="900" width="100" height="60" as="geometry" />
        </mxCell>
        <mxCell id="FSJdYfOo43uuLk9ThQoz-57" value="Fulfillment Message" style="swimlane;childLayout=stackLayout;horizontal=1;startSize=30;horizontalStack=0;fontSize=14;fontStyle=0;strokeWidth=2;resizeParent=0;resizeLast=1;shadow=0;dashed=0;align=center;" parent="1" vertex="1">
          <mxGeometry x="430" y="-120" width="160" height="120" as="geometry" />
        </mxCell>
        <mxCell id="FSJdYfOo43uuLk9ThQoz-58" value="guildId: string&#xa;userId: string&#xa;token: string&#xa;interactionId: string&#xa;requestTimestamp: number" style="align=left;strokeColor=none;fillColor=none;spacingLeft=4;fontSize=12;verticalAlign=top;resizable=0;rotatable=0;part=1;" parent="FSJdYfOo43uuLk9ThQoz-57" vertex="1">
          <mxGeometry y="30" width="160" height="90" as="geometry" />
        </mxCell>
        <mxCell id="FSJdYfOo43uuLk9ThQoz-62" value="Interaction Lambda" style="swimlane;verticalAlign=middle;" parent="1" vertex="1">
          <mxGeometry x="-865" y="870" width="360" height="180" as="geometry">
            <mxRectangle x="-190" y="10" width="140" height="23" as="alternateBounds" />
          </mxGeometry>
        </mxCell>
        <mxCell id="FSJdYfOo43uuLk9ThQoz-140" value="Deferred Interaction Response" style="rounded=0;whiteSpace=wrap;html=1;absoluteArcSize=1;arcSize=14;strokeWidth=1;sketch=0;fillColor=#e1d5e7;strokeColor=#9673a6;" parent="FSJdYfOo43uuLk9ThQoz-62" vertex="1">
          <mxGeometry x="240" y="30" width="100" height="60" as="geometry" />
        </mxCell>
        <mxCell id="FSJdYfOo43uuLk9ThQoz-171" style="edgeStyle=orthogonalEdgeStyle;rounded=0;sketch=0;orthogonalLoop=1;jettySize=auto;html=1;exitX=1;exitY=0.5;exitDx=0;exitDy=0;exitPerimeter=0;entryX=0;entryY=0.5;entryDx=0;entryDy=0;" parent="FSJdYfOo43uuLk9ThQoz-62" source="FSJdYfOo43uuLk9ThQoz-15" target="FSJdYfOo43uuLk9ThQoz-140" edge="1">
          <mxGeometry relative="1" as="geometry" />
        </mxCell>
        <mxCell id="FSJdYfOo43uuLk9ThQoz-10" value="Final Interaction Response" style="strokeWidth=2;html=1;shape=mxgraph.flowchart.terminator;whiteSpace=wrap;fillColor=#e1d5e7;strokeColor=#9673a6;" parent="FSJdYfOo43uuLk9ThQoz-62" vertex="1">
          <mxGeometry x="130" y="110" width="100" height="60" as="geometry" />
        </mxCell>
        <mxCell id="FSJdYfOo43uuLk9ThQoz-215" style="edgeStyle=orthogonalEdgeStyle;rounded=0;sketch=0;orthogonalLoop=1;jettySize=auto;html=1;exitX=1;exitY=0.5;exitDx=0;exitDy=0;dashed=1;" parent="FSJdYfOo43uuLk9ThQoz-62" source="FSJdYfOo43uuLk9ThQoz-185" target="FSJdYfOo43uuLk9ThQoz-15" edge="1">
          <mxGeometry relative="1" as="geometry" />
        </mxCell>
        <mxCell id="FSJdYfOo43uuLk9ThQoz-185" value="Check Winner" style="verticalLabelPosition=middle;verticalAlign=middle;html=1;shape=process;whiteSpace=wrap;size=0.14;arcSize=6;labelPosition=center;align=center;" parent="FSJdYfOo43uuLk9ThQoz-62" vertex="1">
          <mxGeometry x="15.5" y="30" width="100" height="60" as="geometry" />
        </mxCell>
        <mxCell id="FSJdYfOo43uuLk9ThQoz-15" value="Win?" style="strokeWidth=2;html=1;shape=mxgraph.flowchart.decision;whiteSpace=wrap;" parent="FSJdYfOo43uuLk9ThQoz-62" vertex="1">
          <mxGeometry x="150" y="30" width="60" height="60" as="geometry" />
        </mxCell>
        <mxCell id="FSJdYfOo43uuLk9ThQoz-172" style="edgeStyle=orthogonalEdgeStyle;rounded=0;sketch=0;orthogonalLoop=1;jettySize=auto;html=1;exitX=0.5;exitY=1;exitDx=0;exitDy=0;exitPerimeter=0;" parent="FSJdYfOo43uuLk9ThQoz-62" source="FSJdYfOo43uuLk9ThQoz-15" target="FSJdYfOo43uuLk9ThQoz-10" edge="1">
          <mxGeometry relative="1" as="geometry" />
        </mxCell>
        <mxCell id="FSJdYfOo43uuLk9ThQoz-63" value="Fulfillment Lambda" style="swimlane;verticalAlign=middle;" parent="1" vertex="1">
          <mxGeometry x="-360" y="865" width="730" height="245" as="geometry">
            <mxRectangle x="-190" y="620" width="140" height="23" as="alternateBounds" />
          </mxGeometry>
        </mxCell>
        <mxCell id="FSJdYfOo43uuLk9ThQoz-196" style="edgeStyle=orthogonalEdgeStyle;rounded=0;sketch=0;orthogonalLoop=1;jettySize=auto;html=1;exitX=1;exitY=0.5;exitDx=0;exitDy=0;" parent="FSJdYfOo43uuLk9ThQoz-63" source="FSJdYfOo43uuLk9ThQoz-97" target="FSJdYfOo43uuLk9ThQoz-133" edge="1">
          <mxGeometry relative="1" as="geometry" />
        </mxCell>
        <mxCell id="FSJdYfOo43uuLk9ThQoz-97" value="Decrement Prize Stock" style="verticalLabelPosition=middle;verticalAlign=middle;html=1;shape=process;whiteSpace=wrap;size=0.14;arcSize=6;labelPosition=center;align=center;fillColor=#e1d5e7;strokeColor=#9673a6;" parent="FSJdYfOo43uuLk9ThQoz-63" vertex="1">
          <mxGeometry x="325" y="35" width="100" height="60" as="geometry" />
        </mxCell>
        <mxCell id="FSJdYfOo43uuLk9ThQoz-191" style="edgeStyle=orthogonalEdgeStyle;rounded=0;sketch=0;orthogonalLoop=1;jettySize=auto;html=1;exitX=1;exitY=0.5;exitDx=0;exitDy=0;entryX=0;entryY=0.5;entryDx=0;entryDy=0;" parent="FSJdYfOo43uuLk9ThQoz-63" source="FSJdYfOo43uuLk9ThQoz-100" target="FSJdYfOo43uuLk9ThQoz-97" edge="1">
          <mxGeometry relative="1" as="geometry" />
        </mxCell>
        <mxCell id="FSJdYfOo43uuLk9ThQoz-192" style="edgeStyle=orthogonalEdgeStyle;rounded=0;sketch=0;orthogonalLoop=1;jettySize=auto;html=1;exitX=1;exitY=0.5;exitDx=0;exitDy=0;entryX=0;entryY=0.5;entryDx=0;entryDy=0;" parent="FSJdYfOo43uuLk9ThQoz-63" source="FSJdYfOo43uuLk9ThQoz-100" target="FSJdYfOo43uuLk9ThQoz-126" edge="1">
          <mxGeometry relative="1" as="geometry" />
        </mxCell>
        <mxCell id="oSzb1QnaF82HAAy8h1gA-4" style="edgeStyle=orthogonalEdgeStyle;rounded=0;sketch=0;orthogonalLoop=1;jettySize=auto;html=1;exitX=0.5;exitY=1;exitDx=0;exitDy=0;entryX=0;entryY=0.5;entryDx=0;entryDy=0;" edge="1" parent="FSJdYfOo43uuLk9ThQoz-63" source="FSJdYfOo43uuLk9ThQoz-100" target="oSzb1QnaF82HAAy8h1gA-3">
          <mxGeometry relative="1" as="geometry" />
        </mxCell>
        <mxCell id="FSJdYfOo43uuLk9ThQoz-100" value="Prize?" style="rhombus;whiteSpace=wrap;html=1;rounded=0;sketch=0;" parent="FSJdYfOo43uuLk9ThQoz-63" vertex="1">
          <mxGeometry x="185" y="25" width="80" height="80" as="geometry" />
        </mxCell>
        <mxCell id="FSJdYfOo43uuLk9ThQoz-190" style="edgeStyle=orthogonalEdgeStyle;rounded=0;sketch=0;orthogonalLoop=1;jettySize=auto;html=1;exitX=1;exitY=0.5;exitDx=0;exitDy=0;entryX=0;entryY=0.5;entryDx=0;entryDy=0;" parent="FSJdYfOo43uuLk9ThQoz-63" source="FSJdYfOo43uuLk9ThQoz-112" target="FSJdYfOo43uuLk9ThQoz-100" edge="1">
          <mxGeometry relative="1" as="geometry" />
        </mxCell>
        <mxCell id="FSJdYfOo43uuLk9ThQoz-112" value="Select a prize" style="verticalLabelPosition=middle;verticalAlign=middle;html=1;shape=process;whiteSpace=wrap;size=0.14;arcSize=6;labelPosition=center;align=center;" parent="FSJdYfOo43uuLk9ThQoz-63" vertex="1">
          <mxGeometry x="25" y="35" width="100" height="60" as="geometry" />
        </mxCell>
        <mxCell id="FSJdYfOo43uuLk9ThQoz-194" style="edgeStyle=orthogonalEdgeStyle;rounded=0;sketch=0;orthogonalLoop=1;jettySize=auto;html=1;exitX=1;exitY=0.5;exitDx=0;exitDy=0;entryX=0;entryY=0.5;entryDx=0;entryDy=0;" parent="FSJdYfOo43uuLk9ThQoz-63" source="FSJdYfOo43uuLk9ThQoz-126" target="FSJdYfOo43uuLk9ThQoz-133" edge="1">
          <mxGeometry relative="1" as="geometry" />
        </mxCell>
        <mxCell id="FSJdYfOo43uuLk9ThQoz-126" value="Create Win Event" style="verticalLabelPosition=middle;verticalAlign=middle;html=1;shape=process;whiteSpace=wrap;size=0.14;arcSize=6;labelPosition=center;align=center;fillColor=#e1d5e7;strokeColor=#9673a6;" parent="FSJdYfOo43uuLk9ThQoz-63" vertex="1">
          <mxGeometry x="325" y="105" width="100" height="60" as="geometry" />
        </mxCell>
        <mxCell id="FSJdYfOo43uuLk9ThQoz-198" style="edgeStyle=orthogonalEdgeStyle;rounded=0;sketch=0;orthogonalLoop=1;jettySize=auto;html=1;exitX=1;exitY=0.5;exitDx=0;exitDy=0;entryX=0;entryY=0.5;entryDx=0;entryDy=0;entryPerimeter=0;" parent="FSJdYfOo43uuLk9ThQoz-63" source="FSJdYfOo43uuLk9ThQoz-133" edge="1">
          <mxGeometry relative="1" as="geometry">
            <mxPoint x="605" y="65" as="targetPoint" />
          </mxGeometry>
        </mxCell>
        <mxCell id="FSJdYfOo43uuLk9ThQoz-133" value="Notify Staff" style="rounded=0;whiteSpace=wrap;html=1;absoluteArcSize=1;arcSize=14;strokeWidth=1;sketch=0;fillColor=#f8cecc;strokeColor=#b85450;" parent="FSJdYfOo43uuLk9ThQoz-63" vertex="1">
          <mxGeometry x="470" y="35" width="100" height="60" as="geometry" />
        </mxCell>
        <mxCell id="FSJdYfOo43uuLk9ThQoz-153" value="Final Interaction Response" style="strokeWidth=2;html=1;shape=mxgraph.flowchart.terminator;whiteSpace=wrap;fillColor=#e1d5e7;strokeColor=#9673a6;" parent="FSJdYfOo43uuLk9ThQoz-63" vertex="1">
          <mxGeometry x="605" y="35" width="100" height="60" as="geometry" />
        </mxCell>
        <mxCell id="oSzb1QnaF82HAAy8h1gA-5" style="edgeStyle=orthogonalEdgeStyle;rounded=0;sketch=0;orthogonalLoop=1;jettySize=auto;html=1;exitX=1;exitY=0.5;exitDx=0;exitDy=0;entryX=0.5;entryY=1;entryDx=0;entryDy=0;entryPerimeter=0;" edge="1" parent="FSJdYfOo43uuLk9ThQoz-63" source="oSzb1QnaF82HAAy8h1gA-3" target="FSJdYfOo43uuLk9ThQoz-153">
          <mxGeometry relative="1" as="geometry" />
        </mxCell>
        <mxCell id="oSzb1QnaF82HAAy8h1gA-3" value="Create Lose Event" style="verticalLabelPosition=middle;verticalAlign=middle;html=1;shape=process;whiteSpace=wrap;size=0.14;arcSize=6;labelPosition=center;align=center;fillColor=#e1d5e7;strokeColor=#9673a6;" vertex="1" parent="FSJdYfOo43uuLk9ThQoz-63">
          <mxGeometry x="325" y="175" width="100" height="60" as="geometry" />
        </mxCell>
        <mxCell id="FSJdYfOo43uuLk9ThQoz-123" value="Dynamo Tables" style="swimlane;rounded=0;sketch=0;" parent="1" vertex="1">
          <mxGeometry x="600" y="-120" width="610" height="460" as="geometry" />
        </mxCell>
        <mxCell id="FSJdYfOo43uuLk9ThQoz-79" value="Prize" style="swimlane;childLayout=stackLayout;horizontal=1;startSize=30;horizontalStack=0;fontSize=14;fontStyle=0;strokeWidth=2;resizeParent=0;resizeLast=1;shadow=0;dashed=0;align=center;" parent="FSJdYfOo43uuLk9ThQoz-123" vertex="1">
          <mxGeometry x="10" y="35" width="160" height="130" as="geometry" />
        </mxCell>
        <mxCell id="FSJdYfOo43uuLk9ThQoz-80" value="+guildId: string&#xa;%name: string&#xa;initialStock: number&#xa;stock: number&#xa;weight: number&#xa;image: string" style="align=left;strokeColor=none;fillColor=none;spacingLeft=4;fontSize=12;verticalAlign=top;resizable=0;rotatable=0;part=1;" parent="FSJdYfOo43uuLk9ThQoz-79" vertex="1">
          <mxGeometry y="30" width="160" height="100" as="geometry" />
        </mxCell>
        <mxCell id="FSJdYfOo43uuLk9ThQoz-119" value="KnockEvent" style="swimlane;childLayout=stackLayout;horizontal=1;startSize=30;horizontalStack=0;fontSize=14;fontStyle=0;strokeWidth=2;resizeParent=0;resizeLast=1;shadow=0;dashed=0;align=center;" parent="FSJdYfOo43uuLk9ThQoz-123" vertex="1">
          <mxGeometry x="440" y="35" width="160" height="120" as="geometry" />
        </mxCell>
        <mxCell id="FSJdYfOo43uuLk9ThQoz-120" value="+guildId: string&#xa;%userId: string&#xa;prize: string&#xa;stock: number&#xa;weight: number&#xa;" style="align=left;strokeColor=none;fillColor=none;spacingLeft=4;fontSize=12;verticalAlign=top;resizable=0;rotatable=0;part=1;" parent="FSJdYfOo43uuLk9ThQoz-119" vertex="1">
          <mxGeometry y="30" width="160" height="90" as="geometry" />
        </mxCell>
        <mxCell id="FSJdYfOo43uuLk9ThQoz-125" value="Discord Interaction" style="strokeWidth=2;html=1;shape=mxgraph.flowchart.terminator;whiteSpace=wrap;verticalAlign=middle;fillColor=#e1d5e7;strokeColor=#9673a6;" parent="1" vertex="1">
          <mxGeometry x="-300" y="110" width="100" height="60" as="geometry" />
        </mxCell>
        <mxCell id="FSJdYfOo43uuLk9ThQoz-137" value="TODO / Question" style="rounded=1;whiteSpace=wrap;html=1;absoluteArcSize=1;arcSize=14;strokeWidth=2;sketch=0;fillColor=#f8cecc;strokeColor=#b85450;" parent="1" vertex="1">
          <mxGeometry x="-300" y="190" width="100" height="100" as="geometry" />
        </mxCell>
        <mxCell id="FSJdYfOo43uuLk9ThQoz-141" value="Discord Interaction" style="rounded=0;whiteSpace=wrap;html=1;absoluteArcSize=1;arcSize=14;strokeWidth=1;sketch=0;fillColor=#e1d5e7;strokeColor=#9673a6;" parent="1" vertex="1">
          <mxGeometry x="-430" y="110" width="100" height="60" as="geometry" />
        </mxCell>
        <mxCell id="FSJdYfOo43uuLk9ThQoz-173" style="edgeStyle=orthogonalEdgeStyle;rounded=0;sketch=0;orthogonalLoop=1;jettySize=auto;html=1;exitX=1;exitY=0.5;exitDx=0;exitDy=0;entryX=0;entryY=0.5;entryDx=0;entryDy=0;entryPerimeter=0;" parent="1" source="FSJdYfOo43uuLk9ThQoz-140" target="FSJdYfOo43uuLk9ThQoz-47" edge="1">
          <mxGeometry relative="1" as="geometry" />
        </mxCell>
        <mxCell id="FSJdYfOo43uuLk9ThQoz-219" value="Check Winner (Guild)" style="swimlane;rounded=0;sketch=0;strokeWidth=1;fillColor=none;" parent="1" vertex="1">
          <mxGeometry x="-865" y="1070" width="260" height="230" as="geometry" />
        </mxCell>
        <mxCell id="FSJdYfOo43uuLk9ThQoz-37" value="return R &amp;gt; W" style="strokeWidth=2;html=1;shape=mxgraph.flowchart.terminator;whiteSpace=wrap;verticalAlign=middle;" parent="FSJdYfOo43uuLk9ThQoz-219" vertex="1">
          <mxGeometry x="72.5" y="160" width="100" height="60" as="geometry" />
        </mxCell>
        <mxCell id="FSJdYfOo43uuLk9ThQoz-186" value="Fetch winrate for guild (W)" style="verticalLabelPosition=middle;verticalAlign=middle;html=1;shape=process;whiteSpace=wrap;size=0.14;arcSize=6;labelPosition=center;align=center;fillColor=#e1d5e7;strokeColor=#9673a6;" parent="FSJdYfOo43uuLk9ThQoz-219" vertex="1">
          <mxGeometry x="15" y="50" width="100" height="60" as="geometry" />
        </mxCell>
        <mxCell id="FSJdYfOo43uuLk9ThQoz-213" style="edgeStyle=orthogonalEdgeStyle;rounded=0;sketch=0;orthogonalLoop=1;jettySize=auto;html=1;exitX=0.5;exitY=1;exitDx=0;exitDy=0;entryX=0.5;entryY=0;entryDx=0;entryDy=0;entryPerimeter=0;dashed=1;" parent="FSJdYfOo43uuLk9ThQoz-219" source="FSJdYfOo43uuLk9ThQoz-187" target="FSJdYfOo43uuLk9ThQoz-37" edge="1">
          <mxGeometry relative="1" as="geometry" />
        </mxCell>
        <mxCell id="FSJdYfOo43uuLk9ThQoz-187" value="Get random value (R)" style="verticalLabelPosition=middle;verticalAlign=middle;html=1;shape=process;whiteSpace=wrap;size=0.14;arcSize=6;labelPosition=center;align=center;" parent="FSJdYfOo43uuLk9ThQoz-219" vertex="1">
          <mxGeometry x="130" y="50" width="100" height="60" as="geometry" />
        </mxCell>
        <mxCell id="FSJdYfOo43uuLk9ThQoz-189" style="edgeStyle=orthogonalEdgeStyle;rounded=0;sketch=0;orthogonalLoop=1;jettySize=auto;html=1;exitX=0.5;exitY=1;exitDx=0;exitDy=0;entryX=0.5;entryY=0;entryDx=0;entryDy=0;entryPerimeter=0;dashed=1;" parent="FSJdYfOo43uuLk9ThQoz-219" source="FSJdYfOo43uuLk9ThQoz-186" target="FSJdYfOo43uuLk9ThQoz-37" edge="1">
          <mxGeometry relative="1" as="geometry" />
        </mxCell>
        <mxCell id="FSJdYfOo43uuLk9ThQoz-220" style="edgeStyle=orthogonalEdgeStyle;rounded=0;sketch=0;orthogonalLoop=1;jettySize=auto;html=1;exitX=0.5;exitY=1;exitDx=0;exitDy=0;dashed=1;entryX=0.25;entryY=0;entryDx=0;entryDy=0;" parent="1" source="FSJdYfOo43uuLk9ThQoz-185" target="FSJdYfOo43uuLk9ThQoz-219" edge="1">
          <mxGeometry relative="1" as="geometry">
            <mxPoint x="-796" y="1080" as="targetPoint" />
          </mxGeometry>
        </mxCell>
        <mxCell id="FSJdYfOo43uuLk9ThQoz-221" value="Select A Prize (Guild)" style="swimlane;rounded=0;sketch=0;strokeWidth=1;fillColor=none;" parent="1" vertex="1">
          <mxGeometry x="-360" y="1130" width="240" height="470" as="geometry" />
        </mxCell>
        <mxCell id="FSJdYfOo43uuLk9ThQoz-92" value="Return prize" style="strokeWidth=2;html=1;shape=mxgraph.flowchart.terminator;whiteSpace=wrap;rounded=0;sketch=0;flipH=1;" parent="FSJdYfOo43uuLk9ThQoz-221" vertex="1">
          <mxGeometry x="20" y="410" width="100" height="60" as="geometry" />
        </mxCell>
        <mxCell id="FSJdYfOo43uuLk9ThQoz-207" style="edgeStyle=orthogonalEdgeStyle;rounded=0;sketch=0;orthogonalLoop=1;jettySize=auto;html=1;exitX=0.5;exitY=1;exitDx=0;exitDy=0;entryX=0.5;entryY=0;entryDx=0;entryDy=0;entryPerimeter=0;dashed=1;" parent="FSJdYfOo43uuLk9ThQoz-221" source="FSJdYfOo43uuLk9ThQoz-84" target="FSJdYfOo43uuLk9ThQoz-92" edge="1">
          <mxGeometry relative="1" as="geometry" />
        </mxCell>
        <mxCell id="FSJdYfOo43uuLk9ThQoz-82" value="Assign each prize a weight of (weight * stock)" style="rounded=0;whiteSpace=wrap;html=1;absoluteArcSize=1;arcSize=14;strokeWidth=2;sketch=0;" parent="FSJdYfOo43uuLk9ThQoz-221" vertex="1">
          <mxGeometry x="20" y="210" width="100" height="60" as="geometry" />
        </mxCell>
        <mxCell id="FSJdYfOo43uuLk9ThQoz-203" style="edgeStyle=orthogonalEdgeStyle;rounded=0;sketch=0;orthogonalLoop=1;jettySize=auto;html=1;exitX=0.5;exitY=1;exitDx=0;exitDy=0;exitPerimeter=0;entryX=0.5;entryY=0;entryDx=0;entryDy=0;dashed=1;" parent="FSJdYfOo43uuLk9ThQoz-221" source="FSJdYfOo43uuLk9ThQoz-86" target="FSJdYfOo43uuLk9ThQoz-82" edge="1">
          <mxGeometry relative="1" as="geometry" />
        </mxCell>
        <mxCell id="FSJdYfOo43uuLk9ThQoz-86" value="Prizes Left?" style="strokeWidth=2;html=1;shape=mxgraph.flowchart.decision;whiteSpace=wrap;rounded=0;sketch=0;" parent="FSJdYfOo43uuLk9ThQoz-221" vertex="1">
          <mxGeometry x="40" y="120" width="60" height="60" as="geometry" />
        </mxCell>
        <mxCell id="FSJdYfOo43uuLk9ThQoz-205" style="edgeStyle=orthogonalEdgeStyle;rounded=0;sketch=0;orthogonalLoop=1;jettySize=auto;html=1;exitX=0.5;exitY=1;exitDx=0;exitDy=0;entryX=0.5;entryY=0;entryDx=0;entryDy=0;entryPerimeter=0;dashed=1;" parent="FSJdYfOo43uuLk9ThQoz-221" source="FSJdYfOo43uuLk9ThQoz-77" target="FSJdYfOo43uuLk9ThQoz-86" edge="1">
          <mxGeometry relative="1" as="geometry" />
        </mxCell>
        <mxCell id="FSJdYfOo43uuLk9ThQoz-91" value="Return no prize" style="strokeWidth=2;html=1;shape=mxgraph.flowchart.terminator;whiteSpace=wrap;rounded=0;sketch=0;" parent="FSJdYfOo43uuLk9ThQoz-221" vertex="1">
          <mxGeometry x="140" y="410" width="100" height="60" as="geometry" />
        </mxCell>
        <mxCell id="FSJdYfOo43uuLk9ThQoz-201" style="edgeStyle=orthogonalEdgeStyle;rounded=0;sketch=0;orthogonalLoop=1;jettySize=auto;html=1;exitX=1;exitY=0.5;exitDx=0;exitDy=0;exitPerimeter=0;entryX=0.5;entryY=0;entryDx=0;entryDy=0;entryPerimeter=0;dashed=1;" parent="FSJdYfOo43uuLk9ThQoz-221" source="FSJdYfOo43uuLk9ThQoz-86" target="FSJdYfOo43uuLk9ThQoz-91" edge="1">
          <mxGeometry relative="1" as="geometry" />
        </mxCell>
        <mxCell id="FSJdYfOo43uuLk9ThQoz-202" value="No" style="edgeLabel;html=1;align=center;verticalAlign=middle;resizable=0;points=[];" parent="FSJdYfOo43uuLk9ThQoz-201" vertex="1" connectable="0">
          <mxGeometry x="-0.7432" y="1" relative="1" as="geometry">
            <mxPoint as="offset" />
          </mxGeometry>
        </mxCell>
        <mxCell id="FSJdYfOo43uuLk9ThQoz-77" value="Fetch all prizes for the guild" style="verticalLabelPosition=middle;verticalAlign=middle;html=1;shape=process;whiteSpace=wrap;size=0.14;arcSize=6;labelPosition=center;align=center;fillColor=#e1d5e7;strokeColor=#9673a6;" parent="FSJdYfOo43uuLk9ThQoz-221" vertex="1">
          <mxGeometry x="20" y="30" width="100" height="60" as="geometry" />
        </mxCell>
        <mxCell id="FSJdYfOo43uuLk9ThQoz-84" value="Select a weighted random prize" style="rounded=0;whiteSpace=wrap;html=1;absoluteArcSize=1;arcSize=14;strokeWidth=2;sketch=0;" parent="FSJdYfOo43uuLk9ThQoz-221" vertex="1">
          <mxGeometry x="20" y="310" width="100" height="60" as="geometry" />
        </mxCell>
        <mxCell id="FSJdYfOo43uuLk9ThQoz-206" style="edgeStyle=orthogonalEdgeStyle;rounded=0;sketch=0;orthogonalLoop=1;jettySize=auto;html=1;exitX=0.5;exitY=1;exitDx=0;exitDy=0;entryX=0.5;entryY=0;entryDx=0;entryDy=0;dashed=1;" parent="FSJdYfOo43uuLk9ThQoz-221" source="FSJdYfOo43uuLk9ThQoz-82" target="FSJdYfOo43uuLk9ThQoz-84" edge="1">
          <mxGeometry relative="1" as="geometry" />
        </mxCell>
        <mxCell id="FSJdYfOo43uuLk9ThQoz-208" value="Prizes Left?" style="strokeWidth=2;html=1;shape=mxgraph.flowchart.decision;whiteSpace=wrap;rounded=0;sketch=0;" parent="FSJdYfOo43uuLk9ThQoz-221" vertex="1">
          <mxGeometry x="40" y="120" width="60" height="60" as="geometry" />
        </mxCell>
        <mxCell id="FSJdYfOo43uuLk9ThQoz-222" style="edgeStyle=orthogonalEdgeStyle;rounded=0;sketch=0;orthogonalLoop=1;jettySize=auto;html=1;exitX=0.5;exitY=1;exitDx=0;exitDy=0;dashed=1;" parent="1" source="FSJdYfOo43uuLk9ThQoz-112" target="FSJdYfOo43uuLk9ThQoz-221" edge="1">
          <mxGeometry relative="1" as="geometry" />
        </mxCell>
      </root>
    </mxGraphModel>
  </diagram>
</mxfile>
